<?xml version="1.0" encoding="UTF-8"?>
<svg version="1.1" xmlns="http://www.w3.org/2000/svg" width="1024" height="1024">
<path d="M0 0 C337.92 0 675.84 0 1024 0 C1024 337.92 1024 675.84 1024 1024 C686.08 1024 348.16 1024 0 1024 C0 686.08 0 348.16 0 0 Z " fill="#FDFDFD" transform="translate(0,0)"/>
<path d="M0 0 C0.76961563 -0.0033284 1.53923126 -0.0066568 2.33216858 -0.01008606 C3.95491953 -0.0151185 5.5776807 -0.01749553 7.20043945 -0.01733398 C9.62274365 -0.01949783 12.04457431 -0.03763021 14.46679688 -0.05664062 C28.27161465 -0.10767345 42.00353544 0.76326732 55.41015625 4.29296875 C56.23136963 4.50614746 57.05258301 4.71932617 57.89868164 4.93896484 C106.55706329 18.0497082 147.42861789 48.62433683 172.87109375 92.13183594 C180.99302278 106.28388845 186.66580504 121.01149378 190.53515625 136.85546875 C190.73012695 137.64920898 190.92509766 138.44294922 191.12597656 139.26074219 C194.2653933 152.97561917 195.13473276 166.71480029 195.09765625 180.73046875 C195.09684052 181.90343506 195.09684052 181.90343506 195.0960083 183.10009766 C194.93631658 233.33272687 173.18126074 279.70779324 138.16015625 315.10546875 C122.60180565 330.49712273 104.56012348 342.04485548 84.72265625 351.16796875 C83.56894531 351.70164062 82.41523437 352.2353125 81.2265625 352.78515625 C73.56130662 356.08369445 65.79808618 358.36004474 57.72265625 360.41796875 C56.76230469 360.66434082 55.80195312 360.91071289 54.8125 361.16455078 C41.44325888 364.41914229 28.18347085 365.52568805 14.47265625 365.41796875 C13.75243286 365.41453461 13.03220947 365.41110046 12.29016113 365.40756226 C-12.2837729 365.27063267 -35.54187833 361.90849982 -58.27734375 352.16796875 C-58.9518457 351.88083008 -59.62634766 351.59369141 -60.32128906 351.29785156 C-106.99817638 331.11266186 -141.3979589 292.74486602 -160.2109375 245.84033203 C-167.35982275 227.02509199 -171.20463643 207.22840826 -172.27734375 187.16796875 C-172.31730469 186.44335449 -172.35726563 185.71874023 -172.3984375 184.97216797 C-174.24611211 145.44116977 -160.47806595 104.24889627 -136.27734375 73.16796875 C-135.63152344 72.30042969 -134.98570312 71.43289062 -134.3203125 70.5390625 C-123.39752025 56.42776285 -109.99597592 43.27190967 -95.27734375 33.16796875 C-94.73867676 32.79559082 -94.20000977 32.42321289 -93.64501953 32.03955078 C-89.60658243 29.27158035 -85.48223401 26.67500623 -81.27734375 24.16796875 C-80.65972168 23.79816895 -80.04209961 23.42836914 -79.40576172 23.04736328 C-55.98809879 9.27402492 -27.31469585 0.04252977 0 0 Z " fill="#20B4AD" transform="translate(500.27734375,127.83203125)"/>
<path d="M0 0 C1.85559288 -0.0129007 1.85559288 -0.0129007 3.74867249 -0.02606201 C5.10194355 -0.03049636 6.45521506 -0.0347948 7.80848694 -0.03897095 C9.24839469 -0.04688422 10.68830052 -0.0551539 12.12820435 -0.06375122 C16.84461098 -0.08986051 21.56102591 -0.10528185 26.27748108 -0.11953735 C27.91233893 -0.12490424 29.54719674 -0.13028175 31.18205452 -0.13566971 C37.99778827 -0.15729468 44.8135198 -0.17601954 51.62927914 -0.1872921 C61.33048099 -0.20345148 71.03127733 -0.23643666 80.73232645 -0.29369295 C87.58713803 -0.3327384 94.44184286 -0.35196594 101.29676253 -0.35721266 C105.37208849 -0.36082332 109.44698107 -0.37237345 113.52218437 -0.4053154 C154.87965 -0.72316038 190.19374147 7.62790119 220.62513733 37.15390015 C244.02295292 60.47117248 252.98916095 89.99291498 253.05067444 122.41854858 C253.06266927 125.41187098 253.1120714 128.40319213 253.1622467 131.39608765 C253.17170314 133.3205569 253.1789419 135.24503861 253.18373108 137.16952515 C253.21302956 138.49479218 253.21302956 138.49479218 253.24291992 139.84683228 C253.19024095 147.14123301 250.72490409 151.88727224 245.73841858 157.1421814 C236.60884195 163.85568785 227.37836621 164.59645085 216.30348206 164.5415802 C214.99117316 164.54696574 213.67886426 164.55235128 212.32678843 164.55790001 C208.70871058 164.57228387 205.0908619 164.56813223 201.47277188 164.5607332 C197.56131462 164.55598631 193.64990587 164.56852468 189.73846436 164.57875061 C182.08561075 164.5959134 174.43283933 164.59678398 166.77997148 164.59153771 C160.5584145 164.58749059 154.33688175 164.58894599 148.11532593 164.59428596 C146.78535268 164.5954086 146.78535268 164.5954086 145.42851129 164.59655391 C143.62710694 164.59808544 141.82570259 164.59962378 140.02429825 164.60116888 C123.14621493 164.61488444 106.26817802 164.60946255 89.39009577 164.59798367 C73.95860914 164.58804911 58.52724238 164.60099748 43.09577423 164.62491786 C27.23680286 164.64931508 11.3778873 164.65891539 -4.48110247 164.65226513 C-13.37921161 164.64877471 -22.27722856 164.65099348 -31.17532349 164.66851616 C-38.74876368 164.68324579 -46.32204671 164.68386348 -53.89548385 164.66644525 C-57.75704876 164.65793971 -61.618333 164.65577465 -65.47988319 164.6710968 C-69.6712182 164.6875213 -73.86187757 164.67278167 -78.0532074 164.65510559 C-79.26625219 164.6647106 -80.47929698 164.6743156 -81.7291007 164.68421167 C-91.82712744 164.59665642 -101.41879651 162.14314773 -108.77720642 154.7437439 C-113.79641382 149.05530885 -114.67986039 144.2509524 -114.64048767 136.8453064 C-114.64240112 136.04213486 -114.64431458 135.23896332 -114.64628601 134.41145325 C-114.64764439 132.71109708 -114.64397218 131.01073041 -114.63560486 129.31039429 C-114.62502677 126.75602729 -114.63544564 124.20238416 -114.64830017 121.64804077 C-114.66006087 109.10746587 -113.90653385 96.86597272 -110.24986267 84.77890015 C-109.93444519 83.72581665 -109.93444519 83.72581665 -109.61265564 82.65145874 C-100.20693766 52.9054602 -78.68749664 28.70828033 -51.40220642 14.18515015 C-35.84635932 6.20053531 -17.62012054 0.09188777 0 0 Z " fill="#074B6C" transform="translate(443.37486267089844,730.8460998535156)"/>
<path d="M0 0 C4.04291488 1.77525429 7.47510524 4.37522651 11 7 C12.40596427 8.03033793 13.81223761 9.06025419 15.21875 10.08984375 C17.61515065 11.8500878 20.00787303 13.61482167 22.39404297 15.38891602 C28.21542684 19.71494538 34.10832446 23.92147293 40.0625 28.0625 C46.71199579 32.69526 53.34797183 37.34468183 59.9375 42.0625 C60.67685791 42.58658447 61.41621582 43.11066895 62.17797852 43.65063477 C69.02944663 48.57709451 75.35478474 53.51965295 77 62.1875 C77.73252069 72.57907264 69.12589098 81.03950742 63.1875 88.78515625 C58.18845698 95.33505251 53.59990606 102.16693032 49 109 C48.58008789 109.62229492 48.16017578 110.24458984 47.72753906 110.88574219 C43.78316544 116.73918033 39.86772898 122.60549002 36.10546875 128.578125 C35.61884766 129.34584229 35.13222656 130.11355957 34.63085938 130.90454102 C33.69348864 132.38717865 32.76335563 133.87442612 31.84179688 135.36694336 C28.30588523 140.95062639 24.54529558 145.08430373 18 147 C14.08080292 147.50032303 12.33679678 147.17830418 8.8125 145.3125 C4.90037586 142.0958646 3.16917388 139.6954982 2.65942383 134.58666992 C2.67513428 133.31412354 2.69084473 132.04157715 2.70703125 130.73046875 C2.71127609 130.04946609 2.71552094 129.36846344 2.71989441 128.66682434 C2.7365939 126.50663541 2.77422688 124.34740358 2.8125 122.1875 C2.82755826 120.71681042 2.84124466 119.24610611 2.85351562 117.77539062 C2.88646786 114.18328643 2.93818827 110.59173674 3 107 C-8.23321304 112.09141734 -17.67159445 117.94193704 -27 126 C-27.56879883 126.47985352 -28.13759766 126.95970703 -28.72363281 127.45410156 C-47.08288683 143.02249904 -56.55153331 163.25985261 -60 187 C-60.97062881 202.67331244 -60.44440576 217.90264311 -56 233 C-55.79101074 233.7233252 -55.58202148 234.44665039 -55.36669922 235.19189453 C-46.81817573 263.8726711 -27.22802988 288.13812408 -2.1875 304.1875 C-1.28318237 304.7755542 -1.28318237 304.7755542 -0.3605957 305.37548828 C10.81384312 312.31434901 22.84835285 316.05841253 35.5 319.125 C38.11841075 319.76009572 40.73124845 320.41056312 43.34375 321.0703125 C44.48005859 321.34633301 45.61636719 321.62235352 46.78710938 321.90673828 C53.03440197 324.03252675 56.88189175 327.20922754 60 333 C62.23768183 339.71304548 63.51872816 347.11880581 60.875 353.875 C57.41551238 357.79575263 55.33283771 359.78167853 50.06518555 360.2746582 C41.31614541 360.34132112 33.55729235 359.14371757 25.125 356.875 C23.90047119 356.55442627 22.67594238 356.23385254 21.41430664 355.90356445 C-0.45629999 350.05217344 -20.05225117 340.88707065 -38 327 C-38.928125 326.29488281 -39.85625 325.58976562 -40.8125 324.86328125 C-74.46040801 298.40467917 -97.03542742 258.34846531 -103 216 C-103.13921875 215.04770508 -103.13921875 215.04770508 -103.28125 214.07617188 C-107.60877811 180.90875999 -101.57769992 148.8835184 -87 119 C-86.50757813 117.98550781 -86.01515625 116.97101563 -85.5078125 115.92578125 C-79.01350692 103.3591165 -70.22337379 92.57737843 -60.42431641 82.47558594 C-59.11327953 81.11735712 -57.82686442 79.73547548 -56.54296875 78.3515625 C-43.36016694 64.49103788 -26.96785157 55.48392579 -10 47 C-10.52932219 42.10928355 -11.29868039 37.434488 -12.4609375 32.65698242 C-14.06645741 26.04657414 -15.41375613 19.47105731 -16 12.6875 C-16.103125 11.51574219 -16.20625 10.34398437 -16.3125 9.13671875 C-15.92618009 5.25903265 -14.70949668 3.73440014 -12 1 C-8.15563842 -0.92218079 -4.1738092 -0.66085312 0 0 Z " fill="#0E6584" transform="translate(218,252)"/>
<path d="M0 0 C1.36898437 1.00160156 1.36898437 1.00160156 2.765625 2.0234375 C19.76405036 15.17585042 32.80020138 35.50860967 36 57 C37.99066229 85.75913761 32.39426148 109.56588676 13.3125 131.5625 C-2.96017653 148.94907998 -24.94410573 157.80674313 -48.4140625 159.203125 C-72.471672 159.55433098 -94.37092374 150.64837719 -111.8046875 134.28710938 C-128.27001708 118.15463686 -137.89021235 96.37473854 -138.29296875 73.34570312 C-138.44669174 47.50486782 -130.08378703 26.96049001 -112.37890625 8.2265625 C-82.39386375 -20.73373115 -33.80061243 -24.88954188 0 0 Z " fill="#074C6D" transform="translate(563,548)"/>
<path d="M0 0 C2.60116357 0.99135849 5.18926037 2.01026809 7.77368164 3.04443359 C8.55614258 3.35445313 9.33860352 3.66447266 10.14477539 3.98388672 C26.47784589 10.55899459 41.60504447 19.30625541 54.77368164 31.04443359 C56.04598633 32.15431641 56.04598633 32.15431641 57.34399414 33.28662109 C59.85426521 35.5051787 62.32020529 37.76334202 64.77368164 40.04443359 C65.50071289 40.70572266 66.22774414 41.36701172 66.97680664 42.04833984 C78.69159651 53.1521065 87.45357704 66.76080091 94.77368164 81.04443359 C95.12414551 81.72086914 95.47460938 82.39730469 95.83569336 83.09423828 C115.13593219 120.76930107 118.63676887 165.71624225 105.77368164 206.04443359 C92.4740658 244.56375575 64.67969737 268.2005138 31.77368164 290.04443359 C31.92514648 290.90085449 32.07661133 291.75727539 32.23266602 292.63964844 C32.79851708 295.86282314 33.35667173 299.08714623 33.90991211 302.3125 C34.14942404 303.69974024 34.39186209 305.08647897 34.63745117 306.47265625 C38.16469035 326.41235529 38.16469035 326.41235529 35.64868164 332.98193359 C33.19546285 335.68047426 31.22787561 336.84875107 27.77368164 338.04443359 C21.05428028 337.91071416 17.02602568 334.95547147 11.77368164 331.16943359 C10.93482422 330.58009033 10.0959668 329.99074707 9.23168945 329.38354492 C3.68940272 325.47242759 -1.78879455 321.47208607 -7.23339844 317.42626953 C-13.03853342 313.12959183 -18.9745982 309.02787703 -24.91381836 304.91943359 C-50.74787503 287.00132026 -50.74787503 287.00132026 -54.22631836 280.04443359 C-55.50312497 272.63024976 -53.62113818 267.98231557 -49.39819336 261.93505859 C-46.73457014 258.38994855 -44.06232164 254.85305292 -41.33325195 251.35791016 C-32.78904853 240.41094631 -24.86325681 228.98859869 -16.91381836 217.60693359 C-15.19052286 215.14326973 -13.46707657 212.6797116 -11.7434082 210.21630859 C-10.80403094 208.87149042 -9.86648751 207.52538676 -8.93188477 206.17724609 C-1.0132937 194.76643918 -1.0132937 194.76643918 3.77368164 192.04443359 C8.24354124 191.24696239 12.57935671 190.97986011 16.74633789 193.00146484 C20.9490164 196.25415214 22.41759352 199.93057133 23.27612305 205.02709961 C23.39133301 206.10660889 23.50654297 207.18611816 23.62524414 208.29833984 C23.75415039 209.48234375 23.88305664 210.66634766 24.01586914 211.88623047 C24.14219727 213.1140625 24.26852539 214.34189453 24.39868164 215.60693359 C24.53274414 216.83863281 24.66680664 218.07033203 24.80493164 219.33935547 C25.29597476 223.93662145 25.77368164 228.41773047 25.77368164 233.04443359 C47.00134993 218.30299728 63.44497493 194.60468095 68.30859375 169.2565918 C70.50716279 154.07203912 70.19677402 135.7095916 65.77368164 121.04443359 C65.58563965 120.37154297 65.39759766 119.69865234 65.20385742 119.00537109 C56.81309573 89.20715296 38.12785097 62.57084798 11.01977539 47.03955078 C4.50279935 43.42565532 -2.16806393 40.39972378 -9.14819336 37.79052734 C-10.17380371 37.40574219 -11.19941406 37.02095703 -12.25610352 36.62451172 C-14.27418961 35.87954856 -16.29978945 35.15454256 -18.33325195 34.45263672 C-24.4461367 32.21906245 -28.87423766 29.8034834 -32.22631836 24.04443359 C-33.42053724 20.27599936 -33.46404229 16.61288731 -33.53881836 12.66943359 C-33.57620117 11.38294922 -33.61358398 10.09646484 -33.65209961 8.77099609 C-33.15189796 4.39308443 -32.05588787 2.38978494 -29.22631836 -0.95556641 C-20.26576108 -7.71553739 -9.50393005 -3.4911668 0 0 Z " fill="#0E6584" transform="translate(763.226318359375,275.95556640625)"/>
<path d="M0 0 C1.83544922 1.26318359 1.83544922 1.26318359 3.6796875 2.9609375 C4.71899414 3.91359497 4.71899414 3.91359497 5.77929688 4.88549805 C9.68988699 8.60907116 13.55515908 12.37080557 17.375 16.1875 C18.18066406 16.98091797 18.98632812 17.77433594 19.81640625 18.59179688 C20.58597656 19.35943359 21.35554687 20.12707031 22.1484375 20.91796875 C22.84114746 21.60656982 23.53385742 22.2951709 24.24755859 23.00463867 C27.47789199 26.68275442 28.58999348 29.88608992 28.43359375 34.86328125 C27.04923279 41.68531228 20.24496837 46.93115368 15.44140625 51.53125 C13.57166113 53.42193626 11.87930882 55.30563142 10.16772461 57.33007812 C5.28612933 62.92656294 -0.00099912 68.11246208 -5.26751709 73.34268188 C-7.16271893 75.22496176 -9.05464053 77.11048618 -10.94580078 78.99682617 C-15.64053678 83.67828905 -20.34073484 88.35425545 -25.04077148 93.03039551 C-29.0234563 96.99325528 -33.0040216 100.95822178 -36.98187256 104.92593384 C-38.83367034 106.77131359 -40.68848449 108.61362294 -42.54345703 110.45581055 C-47.67040392 115.56066151 -52.70588975 120.6628863 -57.40209961 126.17279053 C-60.46946852 129.6803468 -63.7955567 132.93780576 -67.09375 136.2265625 C-67.84410522 136.97787445 -68.59446045 137.7291864 -69.36755371 138.50326538 C-70.94286398 140.07925152 -72.51941919 141.65399416 -74.09716797 143.22753906 C-76.49692014 145.62192702 -78.89127682 148.02161713 -81.28515625 150.421875 C-82.82520026 151.96125827 -84.36555442 153.50033135 -85.90625 155.0390625 C-86.96749084 156.10333969 -86.96749084 156.10333969 -88.0501709 157.18911743 C-91.76194363 160.88362328 -95.53815654 164.41617664 -99.56446838 167.76672363 C-101.37985379 169.32633534 -102.91452947 171.03161229 -104.4375 172.875 C-106.9546346 175.82396807 -109.53784818 178.66584942 -112.25 181.4375 C-112.89453125 182.09621094 -113.5390625 182.75492188 -114.203125 183.43359375 C-117.49937421 186.30706317 -121.27787989 186.53896816 -125.49099445 186.45299435 C-128.49956551 185.90980476 -129.6329548 184.97906698 -131.85112 182.90834045 C-132.54166159 182.27025515 -133.23220318 181.63216984 -133.94367027 180.97474861 C-134.62225908 180.32308157 -135.30084789 179.67141453 -136 179 C-136.59825907 178.42944822 -137.19651814 177.85889645 -137.81290627 177.27105522 C-139.62345187 175.51899593 -141.41141584 173.74645844 -143.19458008 171.96655273 C-143.86392578 171.30217194 -144.53327148 170.63779114 -145.22290039 169.95327759 C-147.40784933 167.78278284 -149.58902167 165.60854776 -151.76953125 163.43359375 C-152.51969702 162.68625536 -153.26986279 161.93891697 -154.04276085 161.16893196 C-158.00410953 157.22249919 -161.96263148 153.27325762 -165.91870117 149.3215332 C-169.99848023 145.24726157 -174.08747183 141.18236753 -178.17865467 137.11955166 C-181.33296267 133.98386715 -184.48054294 130.84149498 -187.62631798 127.69725227 C-189.13130124 126.19529113 -190.63877993 124.69582604 -192.14881325 123.19894218 C-194.25715835 121.10766857 -196.3558171 119.00711668 -198.45239258 116.90405273 C-199.38516273 115.98510475 -199.38516273 115.98510475 -200.33677673 115.04759216 C-204.45139161 110.89299588 -207.41069206 107.01201837 -208.5625 101.125 C-207.09171576 92.95397645 -198.71019658 86.37426215 -193.0625 80.75 C-191.90331055 79.56664062 -191.90331055 79.56664062 -190.72070312 78.359375 C-180.53843205 68.16849676 -180.53843205 68.16849676 -173.0625 67.8125 C-167.79993413 68.85089901 -164.65982227 72.29467372 -161 76 C-160.11957031 76.87914062 -159.23914063 77.75828125 -158.33203125 78.6640625 C-156.90512442 80.0907213 -155.48071053 81.51952866 -154.06274414 82.95507812 C-151.50061083 85.54153689 -148.90116828 88.02052817 -146.125 90.375 C-142.32680741 93.62158786 -138.78712427 97.09966943 -135.25 100.625 C-134.6945752 101.17591309 -134.13915039 101.72682617 -133.56689453 102.29443359 C-130.48992994 105.38257022 -127.6559409 108.53180533 -125 112 C-120.48208586 111.51369328 -118.53183541 110.01747521 -115.3828125 106.80859375 C-114.52816406 105.94556641 -113.67351562 105.08253906 -112.79296875 104.19335938 C-111.91253906 103.28392578 -111.03210938 102.37449219 -110.125 101.4375 C-109.25230469 100.55513672 -108.37960937 99.67277344 -107.48046875 98.76367188 C-103.82554999 95.04554775 -100.24907831 91.30338466 -96.85096741 87.34898376 C-93.01221605 82.95454409 -88.95930677 78.81146737 -84.83325195 74.68798828 C-84.04861572 73.89999344 -83.26397949 73.1119986 -82.45556641 72.30012512 C-79.88575942 69.72089129 -77.31226608 67.14537656 -74.73828125 64.5703125 C-72.94175527 62.77057065 -71.14530358 60.97075464 -69.34892273 59.17086792 C-65.59596199 55.41193843 -61.84098106 51.65504122 -58.0847168 47.89941406 C-53.74648927 43.56178955 -49.41389716 39.21859134 -45.08384925 34.87280285 C-40.90484152 30.67914837 -36.72031885 26.49102774 -32.53368187 22.30498886 C-30.75743285 20.52755869 -28.9828077 18.74850421 -27.20983315 16.96780777 C-24.7374515 14.48565914 -22.25885144 12.00989025 -19.77856445 9.53564453 C-19.04653305 8.79799362 -18.31450165 8.06034271 -17.56028748 7.30033875 C-16.88335846 6.62760422 -16.20642944 5.95486969 -15.50898743 5.26174927 C-14.92444448 4.67666155 -14.33990152 4.09157383 -13.73764515 3.48875618 C-9.68744124 0.01867709 -5.2622259 -1.24437163 0 0 Z " fill="#FCFDFD" transform="translate(599,217)"/>
<path d="M0 0 C0.33 0.66 0.66 1.32 1 2 C-0.25 5.5625 -0.25 5.5625 -2 9 C-2.99 9.33 -3.98 9.66 -5 10 C-5.33 10.99 -5.66 11.98 -6 13 C-6.33 12.34 -6.66 11.68 -7 11 C-5.56640625 8.3984375 -5.56640625 8.3984375 -3.5625 5.375 C-2.90378906 4.37210937 -2.24507812 3.36921875 -1.56640625 2.3359375 C-1.04949219 1.56507813 -0.53257812 0.79421875 0 0 Z " fill="#0B5475" transform="translate(826,466)"/>
<path d="M0 0 C0.66 0.33 1.32 0.66 2 1 C0.92807816 2.3218362 -0.15802695 3.63217927 -1.25 4.9375 C-1.85328125 5.66839844 -2.4565625 6.39929688 -3.078125 7.15234375 C-5.10741134 9.10326334 -6.254407 9.61731779 -9 10 C-8.06409496 8.8944811 -7.12620142 7.79064547 -6.1875 6.6875 C-5.66542969 6.07261719 -5.14335937 5.45773438 -4.60546875 4.82421875 C-3.12827531 3.14575321 -1.59960869 1.56117966 0 0 Z " fill="#0FAAA2" transform="translate(391,172)"/>
</svg>
